<svg width="326" height="301" viewBox="0 0 326 301" fill="none" xmlns="http://www.w3.org/2000/svg">
<g id="ball_teller">
<g id="tellee ball">
<circle id="ball" cx="160" cy="189" r="88.5" fill="url(#paint0_linear_8_32)" stroke="black"/>
<path id="Rectangle 1" d="M104 261C104 260.448 104.448 260 105 260H214C214.552 260 215 260.448 215 261V284C215 284.552 214.552 285 214 285H105C104.448 285 104 284.552 104 284V261Z" fill="#302A56"/>
<rect id="Rectangle 2" x="94" y="282" width="131" height="19" fill="#302A56"/>
</g>
<g id="sparkle 2">
<path id="Vector" d="M265.1 63.5C266.2 63.5 269.5 48 269.6 43.7C269.7 41.7 267.6 40 265.1 40C262.6 40 260.5 41.6 260.6 43.7C260.8 48 264 63.5 265.1 63.5ZM258.5 70.1C258.5 69 243 65.7 238.7 65.6C236.7 65.5 235 67.6 235 70.1C235 72.6 236.6 74.7 238.7 74.6C243 74.4 258.5 71.2 258.5 70.1ZM260.5 62.8L243.4 48.4L257.9 65.5C258.6 64.5 259.5 63.6 260.5 62.8M269.7 77.4L286.8 91.9L272.4 74.7C271.6 75.7 270.7 76.6 269.7 77.4M291.4 65.6C287.1 65.7 271.6 69 271.6 70.1C271.6 71.2 287.1 74.4 291.4 74.6C293.4 74.7 295.1 72.6 295.1 70.1C295.1 67.6 293.5 65.5 291.4 65.6M265.1 76.7C264 76.7 260.8 92.2 260.6 96.5C260.5 98.5 262.6 100.2 265.1 100.2C267.6 100.2 269.7 98.6 269.6 96.5C269.5 92.2 266.2 76.7 265.1 76.7M272.4 65.5L286.9 48.4L269.7 62.8C270.7 63.6 271.6 64.5 272.4 65.5ZM257.8 74.7L243.4 91.8L260.5 77.3C259.5 76.6 258.6 75.7 257.8 74.7" fill="url(#paint1_linear_8_32)"/>
<path id="Vector_2" d="M265.1 74.6C267.585 74.6 269.6 72.5853 269.6 70.1C269.6 67.6147 267.585 65.6 265.1 65.6C262.615 65.6 260.6 67.6147 260.6 70.1C260.6 72.5853 262.615 74.6 265.1 74.6Z" fill="url(#paint2_linear_8_32)"/>
</g>
<g id="sparkle1">
<path id="Vector_3" d="M295.1 167.5C296.2 167.5 299.5 152 299.6 147.7C299.7 145.7 297.6 144 295.1 144C292.6 144 290.5 145.6 290.6 147.7C290.8 152 294 167.5 295.1 167.5ZM288.5 174.1C288.5 173 273 169.7 268.7 169.6C266.7 169.5 265 171.6 265 174.1C265 176.6 266.6 178.7 268.7 178.6C273 178.4 288.5 175.2 288.5 174.1ZM290.5 166.8L273.4 152.4L287.9 169.5C288.6 168.5 289.5 167.6 290.5 166.8M299.7 181.4L316.8 195.9L302.4 178.7C301.6 179.7 300.7 180.6 299.7 181.4M321.4 169.6C317.1 169.7 301.6 173 301.6 174.1C301.6 175.2 317.1 178.4 321.4 178.6C323.4 178.7 325.1 176.6 325.1 174.1C325.1 171.6 323.5 169.5 321.4 169.6M295.1 180.7C294 180.7 290.8 196.2 290.6 200.5C290.5 202.5 292.6 204.2 295.1 204.2C297.6 204.2 299.7 202.6 299.6 200.5C299.5 196.2 296.2 180.7 295.1 180.7M302.4 169.5L316.9 152.4L299.7 166.8C300.7 167.6 301.6 168.5 302.4 169.5ZM287.8 178.7L273.4 195.8L290.5 181.3C289.5 180.6 288.6 179.7 287.8 178.7" fill="url(#paint3_linear_8_32)"/>
<path id="Vector_4" d="M295.1 178.6C297.585 178.6 299.6 176.585 299.6 174.1C299.6 171.615 297.585 169.6 295.1 169.6C292.615 169.6 290.6 171.615 290.6 174.1C290.6 176.585 292.615 178.6 295.1 178.6Z" fill="url(#paint4_linear_8_32)"/>
</g>
<g id="sparkle 5">
<path id="Vector_5" d="M30.1 152.5C31.2 152.5 34.5 137 34.6 132.7C34.7 130.7 32.6 129 30.1 129C27.6 129 25.5 130.6 25.6 132.7C25.8 137 29 152.5 30.1 152.5ZM23.5 159.1C23.5 158 8 154.7 3.7 154.6C1.7 154.5 0 156.6 0 159.1C0 161.6 1.6 163.7 3.7 163.6C8 163.4 23.5 160.2 23.5 159.1ZM25.5 151.8L8.4 137.4L22.9 154.5C23.6 153.5 24.5 152.6 25.5 151.8M34.7 166.4L51.8 180.9L37.4 163.7C36.6 164.7 35.7 165.6 34.7 166.4M56.4 154.6C52.1 154.7 36.6 158 36.6 159.1C36.6 160.2 52.1 163.4 56.4 163.6C58.4 163.7 60.1 161.6 60.1 159.1C60.1 156.6 58.5 154.5 56.4 154.6M30.1 165.7C29 165.7 25.8 181.2 25.6 185.5C25.5 187.5 27.6 189.2 30.1 189.2C32.6 189.2 34.7 187.6 34.6 185.5C34.5 181.2 31.2 165.7 30.1 165.7M37.4 154.5L51.9 137.4L34.7 151.8C35.7 152.6 36.6 153.5 37.4 154.5ZM22.8 163.7L8.4 180.8L25.5 166.3C24.5 165.6 23.6 164.7 22.8 163.7" fill="url(#paint5_linear_8_32)"/>
<path id="Vector_6" d="M30.1 163.6C32.5853 163.6 34.6 161.585 34.6 159.1C34.6 156.615 32.5853 154.6 30.1 154.6C27.6147 154.6 25.6 156.615 25.6 159.1C25.6 161.585 27.6147 163.6 30.1 163.6Z" fill="url(#paint6_linear_8_32)"/>
</g>
<g id="sparkle 4">
<path id="Vector_7" d="M60.1 58.5C61.2 58.5 64.5 43 64.6 38.7C64.7 36.7 62.6 35 60.1 35C57.6 35 55.5 36.6 55.6 38.7C55.8 43 59 58.5 60.1 58.5ZM53.5 65.1C53.5 64 38 60.7 33.7 60.6C31.7 60.5 30 62.6 30 65.1C30 67.6 31.6 69.7 33.7 69.6C38 69.4 53.5 66.2 53.5 65.1ZM55.5 57.8L38.4 43.4L52.9 60.5C53.6 59.5 54.5 58.6 55.5 57.8M64.7 72.4L81.8 86.9L67.4 69.7C66.6 70.7 65.7 71.6 64.7 72.4M86.4 60.6C82.1 60.7 66.6 64 66.6 65.1C66.6 66.2 82.1 69.4 86.4 69.6C88.4 69.7 90.1 67.6 90.1 65.1C90.1 62.6 88.5 60.5 86.4 60.6M60.1 71.7C59 71.7 55.8 87.2 55.6 91.5C55.5 93.5 57.6 95.2 60.1 95.2C62.6 95.2 64.7 93.6 64.6 91.5C64.5 87.2 61.2 71.7 60.1 71.7M67.4 60.5L81.9 43.4L64.7 57.8C65.7 58.6 66.6 59.5 67.4 60.5ZM52.8 69.7L38.4 86.8L55.5 72.3C54.5 71.6 53.6 70.7 52.8 69.7" fill="url(#paint7_linear_8_32)"/>
<path id="Vector_8" d="M60.1 69.6C62.5853 69.6 64.6 67.5853 64.6 65.1C64.6 62.6147 62.5853 60.6 60.1 60.6C57.6147 60.6 55.6 62.6147 55.6 65.1C55.6 67.5853 57.6147 69.6 60.1 69.6Z" fill="url(#paint8_linear_8_32)"/>
</g>
<g id="sparkle 3">
<path id="Vector_9" d="M160.1 23.5C161.2 23.5 164.5 8 164.6 3.7C164.7 1.7 162.6 0 160.1 0C157.6 0 155.5 1.6 155.6 3.7C155.8 8 159 23.5 160.1 23.5ZM153.5 30.1C153.5 29 138 25.7 133.7 25.6C131.7 25.5 130 27.6 130 30.1C130 32.6 131.6 34.7 133.7 34.6C138 34.4 153.5 31.2 153.5 30.1ZM155.5 22.8L138.4 8.4L152.9 25.5C153.6 24.5 154.5 23.6 155.5 22.8M164.7 37.4L181.8 51.9L167.4 34.7C166.6 35.7 165.7 36.6 164.7 37.4M186.4 25.6C182.1 25.7 166.6 29 166.6 30.1C166.6 31.2 182.1 34.4 186.4 34.6C188.4 34.7 190.1 32.6 190.1 30.1C190.1 27.6 188.5 25.5 186.4 25.6M160.1 36.7C159 36.7 155.8 52.2 155.6 56.5C155.5 58.5 157.6 60.2 160.1 60.2C162.6 60.2 164.7 58.6 164.6 56.5C164.5 52.2 161.2 36.7 160.1 36.7M167.4 25.5L181.9 8.4L164.7 22.8C165.7 23.6 166.6 24.5 167.4 25.5ZM152.8 34.7L138.4 51.8L155.5 37.3C154.5 36.6 153.6 35.7 152.8 34.7" fill="url(#paint9_linear_8_32)"/>
<path id="Vector_10" d="M160.1 34.6C162.585 34.6 164.6 32.5853 164.6 30.1C164.6 27.6147 162.585 25.6 160.1 25.6C157.615 25.6 155.6 27.6147 155.6 30.1C155.6 32.5853 157.615 34.6 160.1 34.6Z" fill="url(#paint10_linear_8_32)"/>
</g>
</g>
<defs>
<linearGradient id="paint0_linear_8_32" x1="160" y1="100" x2="160" y2="278" gradientUnits="userSpaceOnUse">
<stop stop-color="#3A54DA"/>
<stop offset="0.996934" stop-color="#CE2323" stop-opacity="0"/>
</linearGradient>
<linearGradient id="paint1_linear_8_32" x1="265.05" y1="40" x2="255" y2="99.5" gradientUnits="userSpaceOnUse">
<stop stop-color="#6A67C8"/>
<stop offset="1" stop-color="#6A67C8" stop-opacity="0"/>
</linearGradient>
<linearGradient id="paint2_linear_8_32" x1="265.1" y1="65.6" x2="263.6" y2="74.4962" gradientUnits="userSpaceOnUse">
<stop stop-color="#6A67C8"/>
<stop offset="1" stop-color="#6A67C8" stop-opacity="0"/>
</linearGradient>
<linearGradient id="paint3_linear_8_32" x1="295.05" y1="144" x2="295.05" y2="204.2" gradientUnits="userSpaceOnUse">
<stop stop-color="#C29EBF"/>
<stop offset="1" stop-color="#C29EBF" stop-opacity="0"/>
</linearGradient>
<linearGradient id="paint4_linear_8_32" x1="295.1" y1="169.6" x2="295.1" y2="178.6" gradientUnits="userSpaceOnUse">
<stop stop-color="#C29EBF"/>
<stop offset="1" stop-color="#C29EBF" stop-opacity="0"/>
</linearGradient>
<linearGradient id="paint5_linear_8_32" x1="30.05" y1="129" x2="30.05" y2="189.2" gradientUnits="userSpaceOnUse">
<stop stop-color="#C28FEF"/>
<stop offset="1" stop-color="#C28FEF" stop-opacity="0"/>
</linearGradient>
<linearGradient id="paint6_linear_8_32" x1="30.1" y1="154.6" x2="30.1" y2="163.6" gradientUnits="userSpaceOnUse">
<stop stop-color="#C28FEF"/>
<stop offset="1" stop-color="#C28FEF" stop-opacity="0"/>
</linearGradient>
<linearGradient id="paint7_linear_8_32" x1="60.05" y1="35" x2="60.05" y2="95.2" gradientUnits="userSpaceOnUse">
<stop stop-color="#8373C2"/>
<stop offset="1" stop-color="#C28FEF" stop-opacity="0"/>
</linearGradient>
<linearGradient id="paint8_linear_8_32" x1="60.1" y1="60.6" x2="60.1" y2="69.6" gradientUnits="userSpaceOnUse">
<stop stop-color="#8373C2"/>
<stop offset="1" stop-color="#C28FEF" stop-opacity="0"/>
</linearGradient>
<linearGradient id="paint9_linear_8_32" x1="160.05" y1="0" x2="160.05" y2="60.2" gradientUnits="userSpaceOnUse">
<stop stop-color="#F6E2E4"/>
<stop offset="1" stop-color="#C28FEF" stop-opacity="0"/>
</linearGradient>
<linearGradient id="paint10_linear_8_32" x1="160.1" y1="25.6" x2="160.1" y2="34.6" gradientUnits="userSpaceOnUse">
<stop stop-color="#F6E2E4"/>
<stop offset="1" stop-color="#C28FEF" stop-opacity="0"/>
</linearGradient>
</defs>
</svg>
